<svg width="512" height="512" viewBox="0 0 512 512" xmlns="http://www.w3.org/2000/svg" role="img" aria-labelledby="title desc">
  <title id="title">Finances App Icon</title>
  <desc id="desc">Rounded square badge with financial bars and a coin badge.</desc>
  <defs>
    <linearGradient id="bg" x1="0%" y1="0%" x2="100%" y2="100%">
      <stop offset="0%" stop-color="#0f172a" />
      <stop offset="50%" stop-color="#111c3a" />
      <stop offset="100%" stop-color="#1e3a8a" />
    </linearGradient>
    <linearGradient id="panel" x1="0%" y1="0%" x2="0%" y2="100%">
      <stop offset="0%" stop-color="#1d4ed8" />
      <stop offset="100%" stop-color="#2563eb" />
    </linearGradient>
    <linearGradient id="accent" x1="0%" y1="0%" x2="0%" y2="100%">
      <stop offset="0%" stop-color="#34d399" />
      <stop offset="100%" stop-color="#10b981" />
    </linearGradient>
  </defs>
  <rect width="512" height="512" rx="128" fill="url(#bg)" />
  <rect x="80" y="120" width="352" height="272" rx="68" fill="url(#panel)" stroke="#93c5fd" stroke-width="6" opacity="0.95" />
  <g fill="url(#accent)">
    <rect x="168" y="216" width="36" height="124" rx="18" />
    <rect x="232" y="188" width="36" height="152" rx="18" />
    <rect x="296" y="238" width="36" height="102" rx="18" />
  </g>
  <path d="M160 324c44-36 92-54 144-54 32 0 64 8 96 24" fill="none" stroke="#f8fafc" stroke-width="14" stroke-linecap="round" opacity="0.75" />
  <circle cx="356" cy="164" r="72" fill="#facc15" />
  <path d="M356 126v76" stroke="#a16207" stroke-width="14" stroke-linecap="round" />
  <path d="M324 164h64" stroke="#a16207" stroke-width="14" stroke-linecap="round" />
</svg>
